<?xml version="1.0" encoding="utf-8"?>
<!-- Generator: Adobe Illustrator 16.0.2, SVG Export Plug-In . SVG Version: 6.00 Build 0)  -->
<!DOCTYPE svg PUBLIC "-//W3C//DTD SVG 1.1//EN" "http://www.w3.org/Graphics/SVG/1.1/DTD/svg11.dtd">
<svg version="1.1" xmlns="http://www.w3.org/2000/svg" xmlns:xlink="http://www.w3.org/1999/xlink" x="0px" y="0px" width="24px"
	 height="24px" viewBox="0 0 24 24" enable-background="new 0 0 24 24" xml:space="preserve">
<g id="Layer_3">
	<path fill="#7CB342" d="M19.726,14.916c0,4.268-3.458,7.726-7.726,7.726c-4.267,0-7.725-3.458-7.725-7.726
		c0-4.267,3.458-7.725,7.725-7.725C16.268,7.191,19.726,10.649,19.726,14.916z"/>
</g>
<g id="Layer_2">
	<path fill="#FFFFFF" d="M7.887,11.832l2.5,2.057L12,11.832l1.585,2.057l2.527-2.057l-1.028,6.169h-6.17L7.887,11.832z"/>
</g>
<g id="Layer_4">
	<path fill="#FFDA44" d="M10.995,2.542L9.022,2.958l1.351,1.496L10.16,6.458L12,5.635V0.794L10.995,2.542z"/>
	<path fill="#FFDA44" d="M3.911,6.296L2.843,7.529l1.603,0.303L5.29,9.229l0.784-1.431L3.704,4.677L3.911,6.296z"/>
	<path fill="#FFDA44" d="M1.415,12.914l-0.006,1.204l1.043-0.601l1.144,0.376l-0.25-1.178l-2.826-0.608L1.415,12.914z"/>
	<path fill="#FFDA44" d="M20.327,4.677l-2.369,3.122l0.784,1.431l0.844-1.397l1.603-0.303L20.12,6.296L20.327,4.677z"/>
	<path fill="#FFDA44" d="M23.51,12.107l-2.825,0.608l-0.249,1.178l1.144-0.376l1.043,0.601l-0.006-1.204L23.51,12.107z"/>
</g>
<g id="Layer_5">
	<polygon fill="#FFCD00" points="14.979,2.958 13.006,2.542 12,0.794 12,5.635 13.842,6.458 13.627,4.454 	"/>
	<polygon fill="#FFCD00" points="6.684,4.614 5.208,5.311 3.704,4.677 6.073,7.798 7.664,7.428 6.544,6.241 	"/>
	<polygon fill="#FFCD00" points="2.158,10.641 1.667,11.74 0.521,12.107 3.347,12.716 4.059,11.744 2.861,11.618 	"/>
	<polygon fill="#FFCD00" points="17.487,6.241 16.367,7.428 17.958,7.798 20.327,4.677 18.823,5.311 17.348,4.614 	"/>
	<polyline fill="#FFCD00" points="19.904,11.744 20.685,12.716 23.51,12.107 22.363,11.74 21.873,10.641 21.17,11.618 
		19.904,11.744 	"/>
</g>
</svg>
