<?xml version="1.0" encoding="utf-8"?>
<!-- Generator: Adobe Illustrator 16.0.2, SVG Export Plug-In . SVG Version: 6.00 Build 0)  -->
<!DOCTYPE svg PUBLIC "-//W3C//DTD SVG 1.1//EN" "http://www.w3.org/Graphics/SVG/1.1/DTD/svg11.dtd">
<svg version="1.1" id="Layer_1" xmlns="http://www.w3.org/2000/svg" xmlns:xlink="http://www.w3.org/1999/xlink" x="0px" y="0px"
	 width="24px" height="24px" viewBox="0 0 24 24" enable-background="new 0 0 24 24" xml:space="preserve">
<g id="Layer_2">
	<path fill="#932790" d="M20.941,10.145c-0.094-2.646-2.275-4.771-4.943-4.771c-1.506,0-2.926,0.689-3.862,1.858
		C11.2,6.063,9.781,5.374,8.274,5.374c-2.669,0-4.851,2.124-4.946,4.771c-0.002,0.014-0.003,0.026-0.003,0.04
		c0,0.023,0,0.048,0,0.072c0,0.021,0,0.045,0,0.067c0,0.013,0,0.024,0.003,0.037c0.024,0.793,0.207,1.607,0.55,2.438
		c0,0.003,0,0.006,0,0.008c0,0.077,0.033,0.146,0.086,0.192c0.2,0.452,0.446,0.909,0.739,1.37c0.721,1.135,1.725,2.291,2.983,3.438
		c2.134,1.945,4.299,3.211,4.321,3.223c0.04,0.022,0.085,0.037,0.13,0.037c0.044,0,0.09-0.015,0.13-0.037
		c0.021-0.012,2.187-1.276,4.319-3.223c1.26-1.146,2.264-2.304,2.984-3.438c0.875-1.374,1.336-2.721,1.375-4.009
		c0.002-0.013,0.003-0.024,0.003-0.037v-0.139C20.947,10.171,20.945,10.158,20.941,10.145z M19.135,14.088
		c-0.695,1.096-1.668,2.217-2.892,3.331c-1.796,1.64-3.614,2.785-4.108,3.086c-0.493-0.301-2.312-1.446-4.109-3.086
		c-1.223-1.114-2.195-2.235-2.892-3.331c-0.218-0.345-0.409-0.686-0.573-1.023h2.723l0.48,0.961
		c0.047,0.096,0.149,0.151,0.255,0.142s0.195-0.084,0.224-0.187l0.811-2.835l0.894,4.472c0.025,0.119,0.131,0.208,0.254,0.208
		c0.124,0,0.229-0.089,0.253-0.208l0.51-2.553h1.836l0.479,0.961c0.049,0.097,0.15,0.152,0.259,0.142
		c0.106-0.01,0.196-0.087,0.224-0.19l0.875-3.273l1.111,3.561c0.033,0.104,0.128,0.178,0.236,0.182
		c0.109,0.005,0.209-0.062,0.25-0.161l0.488-1.218h2.981C19.545,13.402,19.354,13.743,19.135,14.088z M19.934,12.559
		c-0.023-0.007-0.049-0.011-0.074-0.011h-3.312c-0.104,0-0.2,0.063-0.239,0.162l-0.281,0.705l-1.161-3.722
		c-0.034-0.11-0.138-0.183-0.253-0.181c-0.114,0.002-0.215,0.081-0.243,0.191l-0.929,3.479l-0.246-0.492
		c-0.045-0.088-0.135-0.145-0.232-0.145h-2.206c-0.124,0-0.229,0.088-0.253,0.208l-0.298,1.492l-0.85-4.25
		C9.331,9.88,9.231,9.794,9.111,9.789c-0.12-0.004-0.227,0.073-0.259,0.188L7.932,13.2l-0.255-0.511
		c-0.044-0.088-0.134-0.143-0.232-0.143H4.333c-0.316-0.785-0.481-1.551-0.491-2.292c0.036-2.413,2.01-4.364,4.431-4.364
		c1.456,0,2.819,0.717,3.649,1.92c0.049,0.07,0.128,0.111,0.213,0.111c0.085,0,0.164-0.042,0.213-0.111
		c0.83-1.203,2.193-1.92,3.649-1.92c2.422,0,4.396,1.952,4.431,4.364C20.419,11,20.252,11.77,19.934,12.559z"/>
</g>
<g id="Layer_3">
	<path fill="none" stroke="#932790" stroke-width="0.75" stroke-miterlimit="10" d="M23.157,12c0,6.162-4.995,11.157-11.157,11.157
		S0.843,18.162,0.843,12C0.843,5.837,5.838,0.842,12,0.842S23.157,5.837,23.157,12z"/>
</g>
</svg>
