<?xml version="1.0" encoding="utf-8"?>
<!-- Generator: Adobe Illustrator 16.0.2, SVG Export Plug-In . SVG Version: 6.00 Build 0)  -->
<!DOCTYPE svg PUBLIC "-//W3C//DTD SVG 1.1//EN" "http://www.w3.org/Graphics/SVG/1.1/DTD/svg11.dtd">
<svg version="1.1" id="Layer_2" xmlns="http://www.w3.org/2000/svg" xmlns:xlink="http://www.w3.org/1999/xlink" x="0px" y="0px"
	 width="24px" height="24px" viewBox="0 0 24 24" enable-background="new 0 0 24 24" xml:space="preserve">
<path fill="#CC4B4C" d="M23.507,7.122c0-3.674-2.988-6.663-6.662-6.663c-1.841,0-3.594,0.768-4.844,2.088
	c-1.25-1.321-3.003-2.088-4.843-2.088c-3.674,0-6.663,2.989-6.663,6.663c0,1.534,0.534,3.031,1.504,4.217L12,23.542l3.546-4.326
	h4.681v-3.279h3.279v-5.725h-0.761C23.242,9.265,23.507,8.202,23.507,7.122z M3.1,10.437C2.337,9.505,1.917,8.328,1.917,7.122
	c0-2.889,2.351-5.239,5.24-5.239c1.688,0,3.282,0.82,4.265,2.196L12,4.887l0.579-0.809c0.983-1.375,2.578-2.196,4.266-2.196
	c2.888,0,5.239,2.351,5.239,5.239c0,1.112-0.358,2.198-1.01,3.09h-0.847V6.933h-5.724v3.279h-3.279v5.725h3.279v2.306L12,21.297
	L3.1,10.437z M22.084,14.514h-3.28v3.278h-2.877v-3.278h-3.278v-2.877h3.278v-3.28h2.877v3.28h3.28V14.514z"/>
</svg>
