<?xml version="1.0" encoding="utf-8"?>
<!-- Generator: Adobe Illustrator 16.0.2, SVG Export Plug-In . SVG Version: 6.00 Build 0)  -->
<!DOCTYPE svg PUBLIC "-//W3C//DTD SVG 1.1//EN" "http://www.w3.org/Graphics/SVG/1.1/DTD/svg11.dtd">
<svg version="1.1" id="Layer_3" xmlns="http://www.w3.org/2000/svg" xmlns:xlink="http://www.w3.org/1999/xlink" x="0px" y="0px"
	 width="24px" height="24px" viewBox="0 0 24 24" enable-background="new 0 0 24 24" xml:space="preserve">
<path fill="none" stroke="#EF6C00" stroke-width="0.75" stroke-miterlimit="10" d="M23.157,12c0,6.162-4.995,11.157-11.157,11.157
	S0.843,18.162,0.843,12C0.843,5.837,5.838,0.842,12,0.842S23.157,5.837,23.157,12z"/>
<path fill="#EF6C00" d="M9.218,11.686c-0.111,0.506-0.562,0.886-1.1,0.886c-0.144,0-0.26,0.117-0.26,0.26s0.116,0.26,0.26,0.26
	c0.824,0,1.509-0.607,1.627-1.399c0.505-0.055,0.971-0.278,1.331-0.647c0.101-0.102,0.1-0.267-0.002-0.368
	c-0.103-0.1-0.268-0.098-0.368,0.004c-0.319,0.326-0.746,0.505-1.202,0.505c-0.927,0-1.681-0.754-1.681-1.682
	c0-0.143-0.116-0.26-0.26-0.26s-0.26,0.116-0.26,0.259C7.304,10.621,8.139,11.545,9.218,11.686z M10.319,13.941
	c0-0.146-0.116-0.262-0.26-0.262c-1.214,0-2.201,0.987-2.201,2.202c0,0.013,0,0.025,0,0.037c-0.097-0.012-0.195-0.021-0.295-0.021
	c-0.143,0-0.26,0.115-0.26,0.261s0.116,0.26,0.26,0.26c0.927,0,1.682,0.754,1.682,1.683c0,0.145,0.116,0.26,0.26,0.26
	s0.261-0.115,0.261-0.26c0-0.922-0.57-1.713-1.377-2.039c-0.006-0.062-0.01-0.119-0.01-0.181c0-0.926,0.754-1.68,1.682-1.68
	C10.203,14.201,10.319,14.084,10.319,13.941z M19.193,11.722c0-0.591-0.236-1.153-0.654-1.565c0.066-0.211,0.1-0.431,0.1-0.654
	c0-1.07-0.766-1.964-1.779-2.16c0.076-0.193,0.115-0.4,0.115-0.613c0-0.678-0.41-1.261-0.996-1.513
	c-0.977-0.778-2.047-1.243-2.867-1.243c-0.457,0-0.86,0.225-1.109,0.568c-0.248-0.344-0.653-0.568-1.108-0.568
	c-0.821,0-1.89,0.464-2.867,1.243c-0.588,0.252-1,0.835-1,1.513c0,0.212,0.041,0.42,0.118,0.613C6.13,7.539,5.362,8.433,5.362,9.504
	c0,0.222,0.033,0.442,0.099,0.654c-0.417,0.411-0.654,0.974-0.654,1.565c0,0.463,0.144,0.89,0.389,1.248
	c-0.254,0.367-0.389,0.797-0.389,1.248c0,0.801,0.436,1.533,1.126,1.92c-0.012,0.101-0.018,0.199-0.018,0.299
	c0,1.078,0.704,2.033,1.727,2.359c0.444,0.762,1.254,1.229,2.14,1.229c0.97,0,1.812-0.561,2.218-1.375
	c0.408,0.813,1.247,1.375,2.218,1.375c0.888,0,1.695-0.467,2.14-1.229c1.022-0.326,1.729-1.281,1.729-2.359
	c0-0.1-0.008-0.198-0.02-0.299c0.69-0.387,1.127-1.119,1.127-1.92c0-0.451-0.133-0.881-0.387-1.248
	C19.051,12.613,19.193,12.186,19.193,11.722z M9.783,19.504c-0.729,0-1.393-0.4-1.733-1.049c-0.034-0.063-0.093-0.111-0.163-0.129
	c-0.854-0.229-1.45-1.006-1.45-1.889c0-0.133,0.014-0.265,0.04-0.396c0.025-0.119-0.038-0.24-0.149-0.289
	c-0.608-0.271-0.999-0.873-0.999-1.537c0-0.299,0.078-0.59,0.227-0.844c0.388,0.342,0.897,0.551,1.454,0.551
	c0.143,0,0.26-0.116,0.26-0.26c0-0.146-0.116-0.261-0.26-0.261c-0.927,0-1.681-0.756-1.681-1.68c0-0.499,0.219-0.969,0.604-1.291
	c0.086-0.073,0.116-0.193,0.074-0.298C5.923,9.932,5.881,9.72,5.881,9.504c0-0.927,0.755-1.681,1.682-1.681
	c0.927,0,1.682,0.754,1.682,1.681c0,0.143,0.116,0.261,0.259,0.261c0.144,0,0.26-0.118,0.26-0.261c0-1.167-0.912-2.123-2.06-2.196
	C7.601,7.134,7.546,6.936,7.546,6.73c0-0.464,0.281-0.862,0.682-1.035C8.244,5.69,8.259,5.684,8.273,5.677
	C8.398,5.63,8.532,5.604,8.672,5.604c0.435,0,0.824,0.243,1.015,0.635c0.062,0.129,0.219,0.183,0.347,0.12
	c0.13-0.063,0.183-0.218,0.121-0.348C9.938,5.564,9.527,5.243,9.053,5.129c0.663-0.405,1.316-0.635,1.838-0.635
	c0.468,0,0.85,0.381,0.85,0.85v3.364c-0.234-0.185-0.529-0.296-0.85-0.296c-0.144,0-0.26,0.116-0.26,0.26s0.116,0.26,0.26,0.26
	c0.468,0,0.85,0.381,0.85,0.849v6.249c-0.323-0.416-0.779-0.73-1.316-0.875c-0.139-0.039-0.281,0.045-0.318,0.184
	c-0.038,0.14,0.045,0.281,0.184,0.318c0.854,0.229,1.45,1.008,1.45,1.891C11.741,18.627,10.862,19.504,9.783,19.504z M17.674,15.754
	c-0.111,0.049-0.174,0.17-0.148,0.289c0.025,0.131,0.039,0.262,0.039,0.395c0,0.883-0.596,1.66-1.446,1.89
	c-0.072,0.018-0.132,0.065-0.164,0.129c-0.341,0.647-1.006,1.049-1.733,1.049c-1.078,0-1.958-0.877-1.958-1.957
	c0-0.073-0.002-0.146-0.009-0.219c0.006-0.021,0.009-0.043,0.009-0.07V8.672c0-0.469,0.382-0.849,0.851-0.849
	c0.143,0,0.26-0.116,0.26-0.26s-0.117-0.26-0.26-0.26c-0.322,0-0.616,0.111-0.851,0.297V5.344c0-0.469,0.382-0.849,0.851-0.849
	c0.521,0,1.174,0.229,1.838,0.635c-0.475,0.114-0.885,0.435-1.102,0.883c-0.064,0.129-0.011,0.284,0.118,0.347
	c0.13,0.063,0.285,0.009,0.349-0.12c0.188-0.392,0.58-0.635,1.014-0.635c0.141,0,0.275,0.025,0.398,0.073
	c0.016,0.008,0.03,0.014,0.047,0.018c0.399,0.173,0.684,0.572,0.684,1.036c0,0.206-0.055,0.403-0.16,0.577
	c-1.148,0.073-2.059,1.03-2.059,2.196c0,0.144,0.115,0.26,0.258,0.26s0.262-0.117,0.262-0.26c0-0.927,0.754-1.681,1.68-1.681
	c0.929,0,1.685,0.754,1.685,1.681c0,0.217-0.043,0.429-0.125,0.631c-0.043,0.104-0.015,0.224,0.071,0.297
	c0.386,0.321,0.605,0.792,0.605,1.291c0,0.926-0.754,1.683-1.682,1.683c-0.145,0-0.258,0.114-0.258,0.26
	c0,0.144,0.113,0.26,0.258,0.26c0.557,0,1.066-0.209,1.455-0.553c0.148,0.256,0.227,0.545,0.227,0.846
	C18.674,14.881,18.281,15.484,17.674,15.754z M16.438,12.295c-0.539,0-0.987-0.381-1.1-0.887c1.08-0.141,1.914-1.066,1.914-2.183
	c0-0.144-0.115-0.26-0.258-0.26c-0.146,0-0.26,0.116-0.26,0.26c0,0.927-0.756,1.682-1.685,1.682c-0.454,0-0.881-0.18-1.198-0.505
	c-0.103-0.103-0.267-0.104-0.367-0.004c-0.104,0.101-0.105,0.266-0.006,0.368c0.36,0.367,0.828,0.593,1.332,0.647
	c0.119,0.791,0.803,1.399,1.627,1.399c0.145,0,0.262-0.117,0.262-0.262C16.699,12.409,16.582,12.295,16.438,12.295z M15.605,15.346
	c-0.099,0-0.197,0.006-0.295,0.021c0-0.015,0-0.025,0-0.039c0-1.213-0.986-2.201-2.201-2.201c-0.144,0-0.26,0.117-0.26,0.26
	c0,0.146,0.116,0.261,0.26,0.261c0.926,0,1.682,0.754,1.682,1.682c0,0.061-0.004,0.119-0.01,0.178
	c-0.807,0.328-1.377,1.121-1.377,2.041c0,0.145,0.115,0.26,0.26,0.26c0.143,0,0.26-0.115,0.26-0.26c0-0.926,0.754-1.68,1.682-1.68
	c0.144,0,0.261-0.117,0.261-0.26C15.865,15.461,15.75,15.346,15.605,15.346z"/>
</svg>
