<?xml version="1.0" encoding="utf-8"?>
<!-- Generator: Adobe Illustrator 16.0.2, SVG Export Plug-In . SVG Version: 6.00 Build 0)  -->
<!DOCTYPE svg PUBLIC "-//W3C//DTD SVG 1.1//EN" "http://www.w3.org/Graphics/SVG/1.1/DTD/svg11.dtd">
<svg version="1.1" id="Layer_2" xmlns="http://www.w3.org/2000/svg" xmlns:xlink="http://www.w3.org/1999/xlink" x="0px" y="0px"
	 width="24px" height="24px" viewBox="0 0 24 24" enable-background="new 0 0 24 24" xml:space="preserve">
<path fill="#FF9100" d="M12.001,0.472C5.634,0.472,0.473,5.634,0.473,12s5.162,11.527,11.528,11.527
	c6.366,0,11.527-5.161,11.527-11.527S18.367,0.472,12.001,0.472z M12.001,22.087C6.438,22.087,1.914,17.562,1.914,12
	c0-5.562,4.524-10.087,10.087-10.087c5.561,0,10.087,4.525,10.087,10.087C22.088,17.562,17.562,22.087,12.001,22.087z M12.001,4.795
	c-0.795,0-1.441,0.646-1.441,1.441v7.206c0,0.795,0.646,1.44,1.441,1.44c0.795,0,1.44-0.646,1.44-1.44V6.236
	C13.441,5.44,12.796,4.795,12.001,4.795z M12.001,16.3c0.795,0,1.44,0.646,1.44,1.44c0,0.796-0.646,1.441-1.44,1.441
	c-0.796,0-1.441-0.646-1.441-1.441C10.56,16.945,11.205,16.3,12.001,16.3z"/>
</svg>
