<?xml version="1.0" encoding="utf-8"?>
<!-- Generator: Adobe Illustrator 16.0.2, SVG Export Plug-In . SVG Version: 6.00 Build 0)  -->
<!DOCTYPE svg PUBLIC "-//W3C//DTD SVG 1.1//EN" "http://www.w3.org/Graphics/SVG/1.1/DTD/svg11.dtd">
<svg version="1.1" id="Layer_3" xmlns="http://www.w3.org/2000/svg" xmlns:xlink="http://www.w3.org/1999/xlink" x="0px" y="0px"
	 width="24px" height="24px" viewBox="0 0 24 24" enable-background="new 0 0 24 24" xml:space="preserve">
<path fill="none" stroke="#F1127C" stroke-width="0.75" stroke-miterlimit="10" d="M23.157,12c0,6.162-4.995,11.157-11.157,11.157
	S0.843,18.162,0.843,12C0.843,5.837,5.838,0.842,12,0.842S23.157,5.837,23.157,12z"/>
<path fill="#F1127C" d="M20.736,13.944l-2.191-4.379c-0.139-0.279-0.423-0.454-0.734-0.454c-0.311,0-0.595,0.175-0.734,0.454
	l-2.455,4.912L11.459,6.35c-0.119-0.307-0.411-0.514-0.74-0.523c-0.328-0.009-0.633,0.178-0.771,0.478l-3.064,6.64H3.578
	c-0.454,0-0.821,0.367-0.821,0.82s0.368,0.821,0.821,0.821H7.41c0.32,0,0.611-0.187,0.746-0.478l2.475-5.361l3.131,8.052
	c0.118,0.303,0.403,0.509,0.728,0.522c0.013,0.002,0.025,0.002,0.039,0.002c0.309,0,0.594-0.175,0.734-0.455l2.549-5.1l1.455,2.911
	c0.203,0.406,0.696,0.569,1.103,0.368C20.774,14.844,20.938,14.351,20.736,13.944z"/>
</svg>
