<?xml version="1.0" encoding="utf-8"?>
<!-- Generator: Adobe Illustrator 16.0.2, SVG Export Plug-In . SVG Version: 6.00 Build 0)  -->
<!DOCTYPE svg PUBLIC "-//W3C//DTD SVG 1.1//EN" "http://www.w3.org/Graphics/SVG/1.1/DTD/svg11.dtd">
<svg version="1.1" id="Layer_3" xmlns="http://www.w3.org/2000/svg" xmlns:xlink="http://www.w3.org/1999/xlink" x="0px" y="0px"
	 width="24px" height="24px" viewBox="0 0 24 24" enable-background="new 0 0 24 24" xml:space="preserve">
<path fill="none" stroke="#B387FD" stroke-width="0.75" stroke-miterlimit="10" d="M23.157,12c0,6.162-4.995,11.157-11.157,11.157
	S0.843,18.162,0.843,12C0.843,5.837,5.838,0.842,12,0.842S23.157,5.837,23.157,12z"/>
<path fill="#B387FD" d="M6.566,6.334c1.166,0,2.106,0.941,2.106,2.107c0,1.165-0.94,2.104-2.106,2.104
	c-1.165,0-2.105-0.939-2.105-2.104C4.46,7.274,5.4,6.334,6.566,6.334 M6.566,5.741c-1.493,0-2.719,1.227-2.719,2.719
	s1.227,2.718,2.719,2.718c1.492,0,2.719-1.226,2.719-2.718C9.285,6.948,8.059,5.741,6.566,5.741L6.566,5.741z M14.58,3.554
	c-2.761,0-5.01,2.249-5.01,5.009c0,0.511,0.082,1.001,0.225,1.472c0.184-0.101,0.39-0.184,0.552-0.245
	c-0.123-0.389-0.184-0.798-0.184-1.227c0.022-2.433,2.004-4.395,4.417-4.395c2.434,0,4.395,1.983,4.395,4.395
	c0,2.413-1.961,4.396-4.395,4.396c-0.939,0-1.82-0.307-2.536-0.798c-0.082,0.081-0.144,0.143-0.204,0.226
	c0.941,0.653,1.492,0.734,2.29,0.858c0.081,0.021,0.144,0.062,0.185,0.123c0,0,0.062,0.081,0.143,0.204c0.042,0,0.063,0,0.104,0
	c2.76,0,5.008-2.249,5.008-5.009C19.566,5.802,17.359,3.554,14.58,3.554z M15.316,14.939c-0.326-0.715-0.963-1.531-0.981-1.572
	c-0.042-0.063-0.124-0.104-0.187-0.123c-0.795-0.123-1.349-0.204-2.289-0.858c0.329-0.389,0.84-0.799,1.33-1.063
	c0.287-0.145,0.613-0.246,0.922-0.327c0.611-0.164,1.367-0.39,1.184-1.146C15.193,9.4,14.561,9.133,13.6,9.133
	c-0.103,0-0.205,0-0.328,0.021c-0.633,0.042-1.289,0.102-2.391,0.471c-0.737,0.246-2.228,0.9-2.659,1.697
	c-0.47,0.796-0.202,2.003,0.655,2.863c0,0,0.797,0.816,1.839,1.94c0.246,0.267,0.491,0.532,0.716,0.817
	c0.042,0.757,0.082,1.718,0,2.229c-0.082,0.471-0.491,1.615-0.163,1.881c0.245,0.184,0.96-0.205,1.533-0.859
	c0.042-0.041,0.062-0.08,0.103-0.121l0.123,0.531c0.123,0.797,0.675,1.41,1.248,1.41h0.041c0.715-0.041,1.205-1.349,1.367-2.555
	C15.725,19.273,16.052,16.557,15.316,14.939z M15.111,19.336c-0.163,1.288-0.635,2.003-0.799,2.023l0,0
	c-0.244,0-0.571-0.368-0.652-0.899v-0.021l-0.307-1.289c-0.326-1.368-1.29-2.534-2.168-3.492c-1.063-1.126-1.839-1.943-1.86-1.943
	c-0.654-0.654-0.899-1.596-0.553-2.146c0.267-0.491,1.391-1.125,2.311-1.411c1.042-0.327,1.634-0.388,2.249-0.429
	c0.102,0,0.184,0,0.285,0c0.736,0,1.063,0.184,1.104,0.266c0.041,0.163-0.062,0.225-0.757,0.429
	c-0.325,0.102-0.694,0.203-1.042,0.389c-0.675,0.348-1.35,0.94-1.717,1.492c-0.062,0.101-0.062,0.203-0.021,0.304l0,0
	c0,0,1.392,2.066,3.333,2.066c0.103,0.186,0.205,0.368,0.285,0.532C15.438,16.637,15.111,19.295,15.111,19.336z"/>
</svg>
