<?xml version="1.0" encoding="utf-8"?>
<!-- Generator: Adobe Illustrator 16.0.2, SVG Export Plug-In . SVG Version: 6.00 Build 0)  -->
<!DOCTYPE svg PUBLIC "-//W3C//DTD SVG 1.1//EN" "http://www.w3.org/Graphics/SVG/1.1/DTD/svg11.dtd">
<svg version="1.1" xmlns="http://www.w3.org/2000/svg" xmlns:xlink="http://www.w3.org/1999/xlink" x="0px" y="0px" width="24px"
	 height="24px" viewBox="0 0 24 24" enable-background="new 0 0 24 24" xml:space="preserve">
<g id="Layer_3">
	<path fill="#FFFFFF" d="M23.78,12c0,6.494-5.265,11.757-11.758,11.757C5.529,23.757,0.265,18.493,0.265,12
		S5.529,0.242,12.022,0.242C18.516,0.242,23.78,5.506,23.78,12z"/>
</g>
<g id="Layer_2">
	<path fill="#F1127C" d="M4.052,12.283c-0.126-0.125-0.188-0.313-0.188-0.439c0-0.125,0.063-0.313,0.188-0.438l0.878-0.878
		c0.251-0.251,0.628-0.251,0.878,0l0.063,0.063l3.452,3.704c0.125,0.125,0.313,0.125,0.439,0l8.412-8.725h0.063l0,0
		c0.25-0.25,0.627-0.25,0.88,0l0.878,0.879c0.25,0.251,0.25,0.627,0,0.878l0,0L9.951,17.744c-0.126,0.125-0.251,0.188-0.439,0.188
		c-0.188,0-0.314-0.064-0.44-0.188l-4.896-5.271L4.052,12.283L4.052,12.283z"/>
</g>
</svg>
