<?xml version="1.0" encoding="utf-8"?>
<!-- Generator: Adobe Illustrator 16.0.2, SVG Export Plug-In . SVG Version: 6.00 Build 0)  -->
<!DOCTYPE svg PUBLIC "-//W3C//DTD SVG 1.1//EN" "http://www.w3.org/Graphics/SVG/1.1/DTD/svg11.dtd">
<svg version="1.1" id="Layer_1" xmlns="http://www.w3.org/2000/svg" xmlns:xlink="http://www.w3.org/1999/xlink" x="0px" y="0px"
	 width="24px" height="24px" viewBox="0 0 24 24" enable-background="new 0 0 24 24" xml:space="preserve">
<g id="Layer_2">
	<path fill="#FFFFFF" d="M4.041,6.776l5.505,5.502L6.44,15.386c-0.003,0.003-0.003,0.003-0.006,0.005
		c-0.03,0.032-0.057,0.073-0.073,0.117l-1.386,3.863c-0.044,0.123-0.014,0.256,0.077,0.347c0.064,0.066,0.149,0.101,0.235,0.101
		c0.039,0,0.074-0.006,0.11-0.019l3.901-1.35c0.047-0.017,0.089-0.041,0.124-0.075c0,0,0.002,0,0.003-0.001l3.104-3.108l4.643,4.64
		c0.064,0.064,0.148,0.1,0.234,0.1s0.171-0.034,0.236-0.1l2.767-2.769c0.132-0.13,0.132-0.338,0-0.47l-4.64-4.64l4.058-4.057
		c0.524-0.525,0.516-1.387-0.019-1.922L18.7,4.939c-0.517-0.518-1.316-0.496-1.858,0.046l-4.058,4.057L7.279,3.538
		c-0.131-0.13-0.342-0.13-0.471,0L4.041,6.307C3.91,6.436,3.91,6.646,4.041,6.776z M18.352,8.503L16.309,6.46l1.004-1.003
		c0.135-0.135,0.317-0.224,0.504-0.224c0.144,0,0.287,0.054,0.412,0.178l1.108,1.108c0.271,0.271,0.28,0.72,0.019,0.981
		L18.352,8.503z M13,14.796l2.297-2.295l4.405,4.405l-2.298,2.295l-0.883-0.885l1.09-1.09c0.13-0.129,0.13-0.34,0-0.472
		c-0.129-0.129-0.342-0.129-0.471,0l-1.091,1.089l-0.704-0.705l0.5-0.502c0.129-0.128,0.129-0.34,0-0.468
		c-0.132-0.132-0.342-0.132-0.472,0l-0.501,0.499l-0.707-0.708l1.09-1.088c0.131-0.131,0.131-0.343,0-0.472
		c-0.13-0.133-0.341-0.133-0.472,0l-1.089,1.09L13,14.796z M9.188,17.667l-0.776-0.772L17.105,8.2l0.774,0.774L9.188,17.667z
		 M6.811,16.229l0.893,0.895c0.002,0.001,0.003,0.003,0.003,0.004c0.001,0.002,0.002,0.002,0.004,0.003l0.865,0.867l-2.739,0.946
		L6.811,16.229z M15.838,6.931l0.797,0.797L7.943,16.42l-0.797-0.799L15.838,6.931z M4.747,6.541l2.297-2.297l5.269,5.27
		l-2.295,2.295l-0.559-0.558l1.088-1.09c0.132-0.129,0.132-0.341,0-0.471c-0.128-0.13-0.339-0.13-0.47,0l-1.09,1.089L8.28,10.074
		l0.5-0.5c0.131-0.13,0.131-0.34,0-0.471c-0.129-0.13-0.34-0.13-0.47,0l-0.501,0.5L7.103,8.897l1.089-1.09
		c0.13-0.13,0.13-0.341,0-0.471s-0.34-0.13-0.472,0l-1.088,1.09L5.923,7.719l0.502-0.501c0.131-0.13,0.131-0.341,0-0.471
		c-0.131-0.13-0.34-0.13-0.472,0l-0.5,0.5L4.747,6.541z"/>
</g>
<g id="Layer_3">
	<path fill="none" stroke="#FFFFFF" stroke-width="0.75" stroke-miterlimit="10" d="M23.157,12c0,6.162-4.995,11.157-11.157,11.157
		S0.843,18.162,0.843,12C0.843,5.837,5.838,0.842,12,0.842S23.157,5.837,23.157,12z"/>
</g>
</svg>
