<?xml version="1.0" encoding="utf-8"?>
<!-- Generator: Adobe Illustrator 16.0.2, SVG Export Plug-In . SVG Version: 6.00 Build 0)  -->
<!DOCTYPE svg PUBLIC "-//W3C//DTD SVG 1.1//EN" "http://www.w3.org/Graphics/SVG/1.1/DTD/svg11.dtd">
<svg version="1.1" id="Layer_3" xmlns="http://www.w3.org/2000/svg" xmlns:xlink="http://www.w3.org/1999/xlink" x="0px" y="0px"
	 width="24px" height="24px" viewBox="0 0 24 24" enable-background="new 0 0 24 24" xml:space="preserve">
<path fill="none" stroke="#FFFFFF" stroke-width="0.75" stroke-miterlimit="10" d="M23.157,12c0,6.162-4.995,11.157-11.157,11.157
	S0.843,18.162,0.843,12C0.843,5.837,5.838,0.842,12,0.842S23.157,5.837,23.157,12z"/>
<path fill="#FFFFFF" d="M18.379,10.358h-3.434V7.573c0-0.724-0.596-1.318-1.319-1.318H5.605c-0.724,0-1.319,0.595-1.319,1.318v4.828
	c0,0.724,0.595,1.318,1.319,1.318h0.78l0.983,1.32c0.055,0.092,0.167,0.129,0.278,0.129c0.112,0,0.205-0.057,0.278-0.129l0.983-1.32
	h0.147v2.785c0,0.723,0.595,1.318,1.319,1.318h4.714l0.984,1.316c0.055,0.094,0.166,0.131,0.278,0.131
	c0.111,0,0.205-0.055,0.278-0.131l0.983-1.316h0.781c0.724,0,1.317-0.596,1.317-1.318v-4.828
	C19.716,10.952,19.122,10.358,18.379,10.358z M8.725,13.031c-0.112,0-0.205,0.057-0.279,0.131L7.63,14.238l-0.817-1.076
	c-0.054-0.094-0.166-0.131-0.278-0.131H5.569c-0.353,0-0.631-0.279-0.631-0.63V7.573c0-0.353,0.278-0.631,0.631-0.631h8.021
	c0.353,0,0.63,0.278,0.63,0.631v3.137v1.69c0,0.351-0.277,0.63-0.63,0.63H9.393H8.725L8.725,13.031z M19.029,16.504
	c0,0.354-0.279,0.629-0.631,0.629h-0.966c-0.112,0-0.205,0.057-0.278,0.131l-0.817,1.076l-0.816-1.076
	c-0.054-0.092-0.166-0.131-0.278-0.131h-4.865c-0.353,0-0.63-0.275-0.63-0.629v-2.785h3.88c0.259,0,0.501-0.074,0.704-0.205h2.599
	c0.186,0,0.333-0.148,0.333-0.334c0-0.184-0.147-0.332-0.333-0.332h-2.042c0.056-0.131,0.073-0.279,0.073-0.446v-1.338h3.436
	c0.353,0,0.63,0.279,0.63,0.631v4.809H19.029z M17.246,15.092c0,0.186-0.146,0.334-0.333,0.334h-5.05
	c-0.186,0-0.334-0.148-0.334-0.334s0.148-0.334,0.334-0.334h5.05C17.097,14.758,17.246,14.906,17.246,15.092z M12.104,11.323H7.072
	c-0.186,0-0.334-0.148-0.334-0.334s0.148-0.333,0.334-0.333h5.032c0.186,0,0.333,0.148,0.333,0.333
	C12.455,11.174,12.288,11.323,12.104,11.323z M6.738,9.059c0-0.185,0.148-0.333,0.334-0.333h3.026c0.186,0,0.333,0.148,0.333,0.333
	c0,0.185-0.148,0.333-0.335,0.333H7.072C6.886,9.392,6.738,9.243,6.738,9.059z"/>
</svg>
