<?xml version="1.0" encoding="utf-8"?>
<!-- Generator: Adobe Illustrator 16.0.2, SVG Export Plug-In . SVG Version: 6.00 Build 0)  -->
<!DOCTYPE svg PUBLIC "-//W3C//DTD SVG 1.1//EN" "http://www.w3.org/Graphics/SVG/1.1/DTD/svg11.dtd">
<svg version="1.1" id="Layer_3" xmlns="http://www.w3.org/2000/svg" xmlns:xlink="http://www.w3.org/1999/xlink" x="0px" y="0px"
	 width="24px" height="24px" viewBox="0 0 24 24" enable-background="new 0 0 24 24" xml:space="preserve">
<path fill="none" stroke="#FFFFFF" stroke-width="0.75" stroke-miterlimit="10" d="M23.157,12c0,6.162-4.995,11.157-11.157,11.157
	S0.843,18.162,0.843,12C0.843,5.837,5.838,0.842,12,0.842S23.157,5.837,23.157,12z"/>
<path fill="#FFFFFF" d="M10.184,20.851c-0.826-0.177-1.572-0.588-2.162-1.191c-0.986-1.012-2.195-2.725-2.358-5.147
	C5.361,9.986,7.224,4.441,7.243,4.385C7.267,4.316,7.335,4.271,7.41,4.277c2.046,0.177,4.103,0.485,6.113,0.913
	c2.009,0.429,4.013,0.987,5.955,1.66c0.07,0.024,0.114,0.092,0.105,0.167c-0.005,0.058-0.565,5.881-2.687,9.887
	c-1.139,2.148-2.943,3.219-4.255,3.738C11.858,20.955,11.009,21.026,10.184,20.851z M7.508,4.608
	c-0.268,0.828-1.797,5.787-1.523,9.881c0.157,2.324,1.32,3.973,2.268,4.944c0.544,0.558,1.235,0.939,1.998,1.102
	c0.764,0.163,1.548,0.098,2.273-0.191c1.261-0.5,2.995-1.529,4.087-3.589c1.92-3.626,2.546-8.778,2.64-9.643
	c-1.89-0.649-3.84-1.191-5.795-1.608C11.501,5.088,9.501,4.786,7.508,4.608z M10.841,17.768c-0.655-0.138-1.254-0.517-1.89-1.19
	c-0.177-0.191-0.345-0.398-0.496-0.617c-1-1.457-0.987-2.623-0.986-2.672c0.001-0.065,0.044-0.124,0.106-0.146
	c0.062-0.024,0.132-0.007,0.176,0.045c0.007,0.008,0.767,0.861,1.734,1.395c0.973,0.536,1.87,0.731,1.878,0.732
	c0.01,0.004,0.91,0.19,2.015,0.098c1.104-0.092,2.142-0.563,2.152-0.566c0.061-0.028,0.131-0.016,0.179,0.03
	c0.048,0.047,0.062,0.117,0.035,0.178c-0.018,0.045-0.481,1.116-1.989,2.037c-0.226,0.139-0.464,0.261-0.705,0.361
	C12.197,17.807,11.495,17.908,10.841,17.768z M7.84,13.738c0.081,0.448,0.3,1.192,0.881,2.039c0.142,0.205,0.297,0.399,0.465,0.579
	c0.588,0.625,1.134,0.974,1.721,1.099c0.588,0.126,1.229,0.029,2.021-0.302c0.225-0.093,0.447-0.207,0.661-0.338
	c0.873-0.535,1.378-1.127,1.635-1.503c-0.423,0.153-1.102,0.36-1.819,0.418c-1.153,0.098-2.069-0.095-2.108-0.103
	c-0.037-0.01-0.952-0.208-1.966-0.766C8.7,14.517,8.165,14.049,7.84,13.738z M8.718,10.894c-0.043-0.008-0.078-0.033-0.103-0.069
	c-0.214-0.339-0.287-0.74-0.204-1.129c0.175-0.82,0.982-1.342,1.801-1.169c0.818,0.175,1.342,0.983,1.167,1.801
	c-0.004,0.021-0.01,0.04-0.014,0.06l-0.005,0.018c-0.017,0.063-0.068,0.108-0.131,0.118l-2.454,0.373
	C8.755,10.9,8.736,10.898,8.718,10.894z M10.146,8.841C9.5,8.704,8.864,9.117,8.726,9.761c-0.058,0.274-0.02,0.555,0.109,0.801
	l2.237-0.341C11.185,9.589,10.777,8.977,10.146,8.841z M15.583,12.359c-0.019-0.005-0.037-0.011-0.052-0.021l-2.089-1.343
	c-0.054-0.034-0.081-0.097-0.071-0.16l0.002-0.021c0.005-0.021,0.007-0.039,0.011-0.059c0.175-0.819,0.982-1.342,1.801-1.168
	c0.817,0.175,1.343,0.982,1.167,1.8c-0.083,0.391-0.312,0.728-0.646,0.949C15.67,12.36,15.627,12.368,15.583,12.359z M13.709,10.783
	l1.903,1.225c0.217-0.172,0.367-0.414,0.427-0.687c0.137-0.646-0.277-1.282-0.92-1.42C14.484,9.767,13.861,10.16,13.709,10.783z"/>
</svg>
