<?xml version="1.0" encoding="utf-8"?>
<!-- Generator: Adobe Illustrator 16.0.2, SVG Export Plug-In . SVG Version: 6.00 Build 0)  -->
<!DOCTYPE svg PUBLIC "-//W3C//DTD SVG 1.1//EN" "http://www.w3.org/Graphics/SVG/1.1/DTD/svg11.dtd">
<svg version="1.1" id="Layer_3" xmlns="http://www.w3.org/2000/svg" xmlns:xlink="http://www.w3.org/1999/xlink" x="0px" y="0px"
	 width="24px" height="24px" viewBox="0 0 24 24" enable-background="new 0 0 24 24" xml:space="preserve">
<path fill="none" stroke="#1F88E4" stroke-width="0.75" stroke-miterlimit="10" d="M23.157,12c0,6.162-4.995,11.157-11.157,11.157
	S0.843,18.162,0.843,12C0.843,5.837,5.838,0.842,12,0.842S23.157,5.837,23.157,12z"/>
<path fill="#1F88E4" d="M19.896,15.741l-2.397-2.398c0.104-0.292,0.071-0.611,0.042-0.899c-0.023-0.221-0.046-0.431-0.005-0.582
	c0.038-0.141,0.157-0.305,0.284-0.479c0.207-0.284,0.441-0.606,0.441-1.005c0-0.398-0.234-0.721-0.441-1.005
	c-0.127-0.174-0.246-0.338-0.284-0.479c-0.041-0.152-0.019-0.361,0.005-0.583c0.035-0.344,0.075-0.733-0.117-1.066
	c-0.196-0.338-0.557-0.498-0.875-0.64c-0.2-0.089-0.39-0.173-0.497-0.281c-0.108-0.107-0.191-0.297-0.281-0.498
	c-0.142-0.318-0.302-0.679-0.639-0.874c-0.174-0.1-0.374-0.147-0.63-0.147c-0.147,0-0.295,0.015-0.437,0.03
	c-0.133,0.013-0.256,0.026-0.371,0.026c-0.085,0-0.154-0.008-0.211-0.023c-0.141-0.038-0.305-0.157-0.479-0.284
	C12.721,4.349,12.398,4.115,12,4.115c-0.4,0-0.722,0.234-1.006,0.442c-0.174,0.127-0.338,0.246-0.479,0.284
	c-0.057,0.015-0.125,0.023-0.211,0.023c-0.114,0-0.238-0.013-0.371-0.026c-0.142-0.015-0.289-0.03-0.437-0.03
	c-0.256,0-0.457,0.047-0.629,0.147C8.53,5.148,8.369,5.509,8.228,5.828c-0.089,0.2-0.174,0.39-0.281,0.498
	C7.839,6.433,7.65,6.517,7.449,6.606C7.131,6.748,6.77,6.908,6.575,7.246C6.383,7.578,6.423,7.968,6.458,8.312
	c0.022,0.222,0.044,0.431,0.003,0.583c-0.038,0.14-0.157,0.305-0.284,0.479c-0.207,0.284-0.442,0.606-0.442,1.005
	c0,0.399,0.235,0.721,0.442,1.005c0.126,0.174,0.246,0.338,0.284,0.479c0.041,0.151,0.019,0.361-0.003,0.582
	c-0.03,0.288-0.063,0.607,0.041,0.899l-2.397,2.398c-0.093,0.092-0.125,0.229-0.082,0.353c0.042,0.124,0.15,0.212,0.28,0.229
	l2.666,0.347l0.347,2.665c0.017,0.13,0.106,0.238,0.23,0.28c0.036,0.013,0.073,0.019,0.11,0.019c0.089,0,0.177-0.034,0.242-0.101
	l3.236-3.235c0.25,0.176,0.532,0.342,0.868,0.342s0.617-0.166,0.869-0.342l3.235,3.235c0.065,0.066,0.153,0.101,0.242,0.101
	c0.037,0,0.074-0.006,0.109-0.019c0.124-0.042,0.214-0.15,0.23-0.28l0.347-2.665l2.665-0.347c0.13-0.018,0.238-0.105,0.281-0.229
	C20.021,15.97,19.988,15.833,19.896,15.741z M7.612,16.319c-0.02-0.153-0.142-0.275-0.296-0.296L5.08,15.732l1.853-1.853
	c0.163,0.112,0.346,0.193,0.517,0.27c0.201,0.089,0.39,0.174,0.498,0.28c0.107,0.107,0.191,0.298,0.281,0.498
	c0.141,0.318,0.302,0.68,0.639,0.873c0.173,0.101,0.373,0.147,0.629,0.147c0.147,0,0.294-0.015,0.437-0.03
	c0.132-0.013,0.257-0.026,0.371-0.026c0.086,0,0.154,0.008,0.212,0.023c0.007,0.001,0.015,0.003,0.022,0.007l-2.634,2.634
	L7.612,16.319z M11.398,15.644c-0.217-0.157-0.441-0.32-0.706-0.391c-0.115-0.032-0.243-0.047-0.389-0.047
	c-0.149,0-0.298,0.016-0.441,0.03c-0.131,0.013-0.254,0.026-0.366,0.026c-0.128,0-0.223-0.018-0.286-0.055
	c-0.146-0.083-0.253-0.325-0.357-0.559c-0.11-0.25-0.225-0.507-0.422-0.704c-0.198-0.197-0.456-0.313-0.705-0.424
	c-0.233-0.104-0.475-0.21-0.559-0.355c-0.081-0.14-0.054-0.4-0.028-0.652c0.028-0.273,0.058-0.556-0.016-0.83
	c-0.07-0.264-0.234-0.488-0.392-0.705c-0.16-0.219-0.31-0.426-0.31-0.602c0-0.175,0.15-0.382,0.31-0.602
	c0.158-0.217,0.322-0.441,0.392-0.705c0.073-0.273,0.044-0.556,0.016-0.83C7.115,7.99,7.087,7.729,7.168,7.589
	c0.084-0.145,0.326-0.252,0.559-0.356C7.977,7.122,8.234,7.007,8.432,6.81c0.197-0.197,0.312-0.455,0.422-0.704
	c0.104-0.234,0.211-0.475,0.356-0.559C9.274,5.51,9.368,5.492,9.497,5.492c0.112,0,0.236,0.013,0.366,0.026
	c0.143,0.015,0.292,0.03,0.441,0.03c0.146,0,0.273-0.015,0.389-0.046c0.264-0.07,0.488-0.234,0.706-0.392
	C11.617,4.951,11.824,4.8,12,4.8c0.175,0,0.382,0.151,0.601,0.311c0.217,0.158,0.442,0.322,0.705,0.392
	c0.116,0.031,0.243,0.046,0.39,0.046c0.149,0,0.297-0.015,0.439-0.03c0.132-0.014,0.256-0.026,0.367-0.026
	c0.129,0,0.223,0.018,0.286,0.055c0.145,0.084,0.253,0.325,0.356,0.559c0.111,0.249,0.226,0.506,0.422,0.704
	c0.198,0.197,0.455,0.312,0.704,0.422c0.234,0.104,0.476,0.212,0.56,0.356c0.081,0.14,0.055,0.401,0.028,0.652
	c-0.028,0.273-0.058,0.556,0.016,0.83c0.07,0.264,0.234,0.488,0.392,0.705c0.16,0.22,0.311,0.426,0.311,0.602
	c0,0.176-0.15,0.382-0.311,0.602c-0.157,0.217-0.321,0.441-0.392,0.705c-0.073,0.274-0.044,0.557-0.016,0.83
	c0.026,0.252,0.053,0.513-0.028,0.652c-0.084,0.146-0.325,0.252-0.56,0.355c-0.249,0.111-0.506,0.227-0.704,0.424
	c-0.196,0.197-0.311,0.454-0.422,0.704c-0.104,0.233-0.212,0.476-0.356,0.559c-0.063,0.037-0.157,0.055-0.286,0.055
	c-0.111,0-0.235-0.014-0.367-0.026c-0.143-0.015-0.29-0.03-0.439-0.03c-0.146,0-0.274,0.015-0.39,0.047
	c-0.263,0.07-0.488,0.233-0.705,0.391c-0.219,0.16-0.426,0.312-0.601,0.312C11.824,15.955,11.617,15.804,11.398,15.644z
	 M16.682,16.023c-0.153,0.021-0.274,0.143-0.295,0.296l-0.291,2.236l-2.635-2.634c0.007-0.004,0.015-0.006,0.022-0.007
	c0.057-0.016,0.126-0.023,0.211-0.023c0.115,0,0.238,0.014,0.371,0.026c0.142,0.016,0.29,0.03,0.437,0.03
	c0.256,0,0.456-0.047,0.63-0.147c0.337-0.193,0.497-0.555,0.639-0.873c0.089-0.201,0.173-0.391,0.281-0.498
	c0.107-0.106,0.297-0.191,0.497-0.28c0.172-0.076,0.354-0.157,0.518-0.27l1.853,1.853L16.682,16.023z M14.217,13.756
	c0.107-0.077,0.159-0.211,0.135-0.341l-0.393-2.074l1.536-1.446c0.097-0.091,0.133-0.229,0.092-0.356
	c-0.041-0.126-0.151-0.217-0.283-0.234L13.21,9.038L12.309,7.13C12.252,7.01,12.132,6.933,12,6.933c-0.133,0-0.254,0.077-0.31,0.197
	l-0.901,1.908L8.695,9.305C8.563,9.322,8.453,9.413,8.412,9.539C8.371,9.666,8.406,9.804,8.503,9.895l1.537,1.446l-0.393,2.074
	c-0.025,0.13,0.028,0.264,0.136,0.341c0.059,0.044,0.13,0.066,0.201,0.066c0.057,0,0.114-0.015,0.166-0.043L12,12.766l1.851,1.014
	C13.967,13.843,14.109,13.835,14.217,13.756z M12.164,12.074c-0.051-0.028-0.107-0.042-0.164-0.042
	c-0.058,0-0.114,0.014-0.166,0.042l-1.379,0.755l0.292-1.544c0.022-0.115-0.017-0.233-0.102-0.313L9.502,9.894l1.56-0.199
	c0.115-0.015,0.215-0.088,0.266-0.193L12,8.079l0.671,1.422c0.05,0.105,0.15,0.179,0.267,0.193l1.559,0.199l-1.145,1.078
	c-0.085,0.08-0.123,0.198-0.102,0.313l0.293,1.544L12.164,12.074z"/>
</svg>
