<?xml version="1.0" encoding="utf-8"?>
<!-- Generator: Adobe Illustrator 16.0.2, SVG Export Plug-In . SVG Version: 6.00 Build 0)  -->
<!DOCTYPE svg PUBLIC "-//W3C//DTD SVG 1.1//EN" "http://www.w3.org/Graphics/SVG/1.1/DTD/svg11.dtd">
<svg version="1.1" id="Layer_3" xmlns="http://www.w3.org/2000/svg" xmlns:xlink="http://www.w3.org/1999/xlink" x="0px" y="0px"
	 width="24px" height="24px" viewBox="0 0 24 24" enable-background="new 0 0 24 24" xml:space="preserve">
<path fill="#FFFFFF" d="M0.327,10.832l2.477,2.972c0.095,0.111,0.233,0.178,0.38,0.178c0.148,0,0.288-0.065,0.381-0.178l2.477-2.972
	c0.124-0.148,0.15-0.353,0.069-0.527c-0.083-0.174-0.257-0.286-0.45-0.286H4.204c0.904-3.964,4.452-6.934,8.687-6.934
	c4.915,0,8.916,4,8.916,8.917c0,4.915-4.001,8.915-8.916,8.915c-3.173,0-6.133-1.708-7.724-4.457
	c-0.273-0.474-0.879-0.636-1.353-0.362c-0.474,0.274-0.636,0.881-0.362,1.355c1.944,3.356,5.56,5.446,9.438,5.446
	c6.01,0,10.897-4.89,10.897-10.898S18.9,1.102,12.891,1.102c-5.332,0-9.78,3.851-10.713,8.917H0.709
	c-0.193,0-0.368,0.112-0.449,0.286C0.178,10.478,0.204,10.683,0.327,10.832z M12.607,4.315c-0.547,0-0.991,0.443-0.991,0.991v6.011
	c-0.448,0.314-0.743,0.832-0.743,1.42c0,0.956,0.778,1.733,1.733,1.733c0.262,0,0.508-0.062,0.732-0.167l3.445,1.988
	c0.156,0.092,0.326,0.134,0.495,0.134c0.342,0,0.674-0.177,0.858-0.496c0.272-0.472,0.111-1.079-0.362-1.353l-3.45-1.992
	c-0.046-0.523-0.318-0.98-0.728-1.267V5.307C13.598,4.76,13.154,4.315,12.607,4.315z M12.607,13.48c-0.41,0-0.743-0.335-0.743-0.743
	c0-0.41,0.334-0.743,0.743-0.743c0.408,0,0.743,0.333,0.743,0.743C13.351,13.146,13.016,13.48,12.607,13.48z"/>
</svg>
