<?xml version="1.0" encoding="utf-8"?>
<!-- Generator: Adobe Illustrator 16.0.2, SVG Export Plug-In . SVG Version: 6.00 Build 0)  -->
<!DOCTYPE svg PUBLIC "-//W3C//DTD SVG 1.1//EN" "http://www.w3.org/Graphics/SVG/1.1/DTD/svg11.dtd">
<svg version="1.1" id="Layer_1" xmlns="http://www.w3.org/2000/svg" xmlns:xlink="http://www.w3.org/1999/xlink" x="0px" y="0px"
	 width="512px" height="512px" viewBox="0 0 512 512" enable-background="new 0 0 512 512" xml:space="preserve">
<g>
	<g>
		<path fill="#E53935" d="M100.294,328.027V27.147c0-9.225-7.491-16.714-16.716-16.714H16.716C7.491,10.434,0,17.922,0,27.147
			v300.88c0,9.229,7.524,16.716,16.716,16.716h66.862C92.769,344.743,100.294,337.257,100.294,328.027z"/>
	</g>
</g>
<g>
	<g>
		<path fill="#E53935" d="M489.438,252.336c12.944-22.892,5.387-52.707-16.716-66.862c12.944-22.892,5.386-52.707-16.716-66.861
			c18.541-32.791-6.095-74.771-43.687-74.749H133.726v267.449c0,0,80.619,73.021,106.571,98.332
			c14.885,14.517,24.497,33.857,28.354,54.199c1.521,8.021,1.08,16.463,5.352,23.696c3.714,6.289,9.945,10.983,17.035,12.767
			c12.363,3.112,27.697,0.168,38.672-5.697c33.707-18.008,41.572-68.66,29.424-101.834l-17.605-48.032c0,0,126.047,0.456,128.738,0
			C514.823,337.207,527.572,276.759,489.438,252.336z"/>
	</g>
</g>
</svg>
